<?xml version="1.0" standalone="no"?>
<!DOCTYPE svg PUBLIC "-//W3C//DTD SVG 20010904//EN"
 "http://www.w3.org/TR/2001/REC-SVG-20010904/DTD/svg10.dtd">
<svg version="1.0" xmlns="http://www.w3.org/2000/svg"
 width="2788.000000pt" height="2788.000000pt" viewBox="0 0 2788.000000 2788.000000"
 preserveAspectRatio="xMidYMid meet">
<metadata>
Created by potrace 1.11, written by Peter Selinger 2001-2013
</metadata>
<g transform="translate(0.000000,2788.000000) scale(0.100000,-0.100000)"
fill="#000000" stroke="none">
<path d="M10332 23261 c-49 -8 -41 -2 -152 -141 -90 -112 -314 -382 -366 -440
-246 -275 -339 -375 -509 -545 -174 -174 -268 -263 -390 -370 -77 -68 -257
-216 -315 -260 -36 -28 -67 -52 -70 -55 -3 -3 -30 -23 -60 -46 -649 -484
-1200 -763 -1805 -914 -82 -21 -202 -46 -265 -55 -63 -9 -126 -19 -140 -22
-44 -9 -472 -11 -550 -2 -41 5 -101 11 -133 14 -32 4 -68 8 -80 11 -12 2 -51
9 -87 14 -378 60 -805 235 -1138 467 -258 180 -544 464 -743 739 -24 34 -46
62 -49 63 -16 4 -158 -44 -207 -70 -233 -126 -496 -400 -616 -643 -65 -131
-67 -145 -20 -198 44 -50 238 -242 279 -277 16 -14 54 -46 84 -71 30 -26 66
-56 79 -66 13 -11 28 -23 35 -29 30 -26 132 -99 236 -167 332 -218 727 -379
1105 -452 11 -2 38 -8 60 -12 22 -4 45 -8 50 -9 20 -2 130 -17 155 -21 53 -8
250 -18 370 -18 123 0 369 12 379 19 4 1 33 6 66 9 190 21 525 100 760 179
294 100 644 256 905 404 329 187 596 365 920 611 69 53 127 98 130 101 3 4 25
22 50 41 266 206 732 648 1049 996 30 32 71 77 91 99 45 49 333 387 375 439
17 21 35 43 41 50 11 12 186 233 219 277 11 14 51 67 89 118 37 51 70 90 73
88 2 -3 -12 -58 -32 -123 -20 -66 -38 -126 -40 -134 -2 -8 -15 -51 -29 -95
-167 -540 -379 -1152 -601 -1740 -83 -221 -223 -577 -250 -640 -7 -16 -43
-104 -80 -195 -37 -91 -73 -178 -80 -195 -7 -16 -66 -154 -130 -305 -65 -151
-133 -308 -151 -348 -19 -41 -34 -75 -34 -77 0 -4 -293 -649 -353 -775 -51
-108 -113 -239 -182 -385 -85 -180 -552 -1116 -651 -1305 -84 -161 -335 -634
-449 -845 -148 -274 -541 -967 -681 -1203 -41 -68 -74 -125 -74 -128 0 -2 -12
-23 -27 -47 -54 -86 -72 -115 -138 -227 -220 -370 -655 -1043 -936 -1449 -63
-90 -136 -196 -163 -235 -187 -270 -610 -839 -853 -1146 -10 -12 -138 -172
-276 -344 -264 -329 -558 -658 -831 -932 -248 -248 -367 -356 -579 -524 -225
-177 -471 -325 -692 -417 -90 -38 -275 -104 -275 -98 0 1 -21 -3 -47 -11 -27
-8 -64 -17 -83 -20 -19 -3 -38 -8 -41 -10 -5 -3 -71 -9 -199 -18 -129 -10
-326 38 -467 114 -242 130 -414 341 -552 675 -58 142 -120 339 -137 435 -3 14
-9 41 -14 60 -4 19 -14 69 -20 110 -6 41 -13 84 -15 95 -1 11 -6 56 -10 100
-4 44 -9 96 -11 115 -5 48 -5 415 0 470 3 25 7 79 11 120 8 97 17 163 49 340
16 91 84 351 106 405 4 11 20 54 35 95 67 183 196 394 321 524 43 46 64 76 64
93 0 22 -5 19 -56 -34 -367 -383 -577 -1031 -575 -1772 0 -97 2 -205 5 -241
14 -164 17 -199 26 -250 5 -30 12 -73 15 -95 49 -340 188 -726 375 -1045 148
-253 360 -479 571 -607 131 -80 288 -152 389 -179 182 -47 225 -54 400 -59
139 -4 295 7 395 29 11 2 56 12 100 21 133 27 384 105 510 159 189 80 389 190
600 331 311 208 602 448 955 790 697 675 1507 1775 2433 3305 97 161 345 580
395 669 14 25 38 67 53 93 16 27 29 51 29 54 0 2 11 22 24 43 13 21 47 78 74
127 27 49 91 163 142 254 91 163 126 226 196 358 20 37 40 72 44 77 4 6 33 60
65 120 32 61 66 124 75 140 9 17 57 104 105 195 87 160 139 261 286 540 l70
135 95 65 c52 36 143 97 202 137 59 40 112 76 117 80 25 20 243 158 359 228
361 215 736 353 827 305 10 -6 25 -23 32 -38 17 -34 16 -56 -10 -242 -2 -19
-6 -51 -8 -70 -2 -19 -6 -53 -9 -75 -3 -22 -8 -65 -11 -95 -3 -30 -10 -86 -15
-125 -10 -75 -20 -168 -25 -226 -3 -33 -11 -116 -20 -199 -2 -19 -6 -66 -10
-105 -3 -38 -8 -88 -10 -110 -3 -22 -7 -76 -11 -120 -3 -44 -7 -96 -9 -115 -2
-19 -7 -75 -10 -125 -3 -49 -7 -108 -9 -130 -4 -45 -18 -264 -21 -340 -1 -27
-6 -122 -10 -210 -4 -88 -9 -194 -11 -235 -4 -105 -4 -974 0 -1095 6 -142 17
-374 21 -415 2 -19 6 -82 10 -140 4 -58 9 -113 11 -123 2 -11 6 -58 9 -105 3
-48 10 -112 15 -142 4 -30 8 -62 8 -70 0 -18 8 -83 16 -130 6 -38 14 -92 22
-155 22 -165 90 -500 139 -690 176 -677 424 -1145 771 -1455 294 -262 648
-359 1079 -295 137 21 376 95 535 167 103 46 262 130 345 181 58 35 275 177
290 189 6 5 69 52 140 105 72 53 135 101 141 107 6 6 28 25 49 41 43 34 97 79
135 112 14 12 36 31 50 43 14 12 41 36 60 53 19 18 76 68 125 112 87 77 514
501 585 581 19 21 78 86 130 144 202 224 315 356 494 575 72 88 136 167 143
175 68 82 377 480 384 495 5 11 24 43 41 70 68 109 136 269 162 385 39 167 41
363 6 480 -43 146 -123 272 -245 388 -129 123 -390 386 -442 447 -29 33 -66
76 -83 95 -17 19 -63 78 -103 130 -39 52 -75 97 -78 100 -4 3 -45 64 -92 135
-158 241 -309 533 -407 785 -29 74 -56 144 -60 155 -52 126 -136 474 -155 635
-27 232 -27 526 0 715 71 503 312 986 669 1340 105 103 124 120 226 196 190
143 425 254 640 303 66 15 81 18 200 36 67 9 392 6 445 -5 17 -3 64 -13 105
-21 225 -45 509 -184 730 -358 36 -28 67 -53 70 -57 3 -3 82 -73 176 -155 267
-233 531 -447 759 -612 55 -41 111 -82 125 -93 90 -72 742 -489 765 -489 4 0
19 -8 33 -18 31 -22 187 -105 347 -185 442 -222 1022 -446 1508 -582 89 -25
178 -50 197 -55 36 -10 239 -59 275 -66 11 -2 31 -6 45 -9 14 -3 70 -14 125
-25 55 -11 111 -22 124 -24 12 -3 42 -8 65 -10 22 -3 51 -8 62 -10 12 -2 39
-7 60 -10 113 -17 115 -17 110 -34 -10 -33 -55 -200 -96 -357 -78 -297 -274
-988 -362 -1275 -11 -36 -23 -78 -28 -95 -4 -16 -27 -91 -50 -165 -23 -74 -43
-139 -44 -145 -10 -40 -79 -259 -176 -560 -29 -88 -53 -167 -55 -175 -2 -8 -4
-15 -4 -15 -1 0 -66 -193 -145 -430 -188 -560 -344 -1006 -506 -1445 -40 -107
-87 -235 -105 -285 -18 -49 -48 -128 -65 -175 -18 -47 -39 -103 -47 -125 -7
-22 -25 -67 -38 -100 -13 -33 -54 -139 -91 -235 -213 -560 -528 -1334 -654
-1605 -10 -22 -48 -105 -83 -185 -64 -144 -106 -235 -174 -380 -20 -41 -51
-109 -70 -150 -43 -93 -382 -771 -392 -785 -5 -5 -33 -57 -63 -115 -58 -110
-67 -127 -181 -330 -127 -228 -463 -779 -487 -800 -3 -3 -32 -43 -65 -90 -406
-588 -897 -1028 -1325 -1189 -59 -23 -176 -57 -225 -66 -144 -26 -392 -24
-505 5 -19 5 -46 11 -60 14 -54 10 -199 60 -270 94 -486 229 -879 757 -1103
1482 -42 136 -91 333 -101 411 -3 19 -10 68 -16 109 -39 266 -29 687 22 910 5
25 12 56 14 70 28 146 113 371 181 482 13 21 23 40 23 43 0 6 100 157 109 165
3 3 26 29 50 58 42 51 43 55 35 95 l-9 42 -23 -25 c-171 -180 -364 -562 -408
-808 -3 -14 -7 -28 -9 -32 -5 -8 -35 -180 -41 -237 -22 -219 -23 -606 0 -718
2 -11 7 -51 11 -90 4 -38 8 -72 10 -75 2 -3 6 -22 9 -42 30 -191 113 -466 208
-688 52 -122 170 -354 194 -381 8 -8 14 -19 14 -23 0 -15 148 -225 237 -338
334 -417 700 -652 1158 -743 133 -26 230 -36 350 -37 83 -1 249 10 275 17 8 2
32 6 53 9 89 14 111 19 214 47 59 16 115 31 124 33 8 2 54 18 101 35 425 150
792 370 1173 704 91 80 411 400 497 497 473 535 860 1077 1210 1695 251 444
474 907 755 1569 46 111 91 215 98 231 27 63 176 436 225 565 29 74 57 146 63
160 5 14 11 30 12 35 2 6 30 82 63 170 161 427 415 1180 597 1770 26 83 60
193 77 245 16 52 32 106 34 119 3 14 7 28 10 32 2 4 17 52 33 106 56 188 103
348 107 363 1 8 24 87 50 175 25 88 54 189 64 225 27 95 61 223 65 240 2 8 13
48 24 87 12 40 32 114 46 165 20 76 49 187 130 488 5 16 23 84 30 110 2 8 40
155 85 325 93 352 130 493 135 515 1 8 42 168 90 355 48 187 89 351 92 365 2
13 6 26 8 28 2 2 41 5 87 7 234 10 356 16 388 19 19 2 71 7 115 10 122 10 339
36 425 51 14 2 45 7 70 10 145 20 508 99 705 155 61 17 119 33 130 35 47 11
513 168 581 196 16 7 31 13 34 14 9 2 167 64 202 79 18 8 59 26 91 40 32 14
59 26 62 26 8 0 164 74 310 147 149 75 334 177 430 238 233 148 453 302 544
380 256 219 397 367 534 558 55 77 137 217 141 240 1 7 4 17 8 22 11 20 37
121 40 160 4 52 -14 61 -24 12 -37 -179 -206 -368 -473 -530 -84 -51 -291
-157 -385 -196 -306 -128 -651 -244 -940 -316 -121 -30 -147 -36 -160 -40 -8
-2 -59 -13 -113 -24 -54 -12 -102 -23 -105 -25 -4 -2 -23 -7 -42 -10 -33 -5
-101 -18 -160 -31 -14 -3 -50 -9 -80 -15 -30 -6 -66 -12 -80 -15 -48 -10 -445
-74 -495 -80 -27 -4 -61 -8 -75 -10 -59 -9 -189 -25 -240 -30 -30 -3 -66 -7
-80 -10 -14 -2 -59 -6 -100 -10 -41 -3 -86 -8 -100 -10 -24 -4 -120 -13 -210
-20 -25 -2 -74 -6 -110 -9 -36 -4 -101 -8 -145 -11 -44 -3 -114 -7 -155 -10
-548 -40 -1507 -35 -2000 10 -19 2 -69 6 -110 9 -176 14 -207 17 -240 21 -19
3 -60 8 -90 10 -55 5 -114 12 -180 20 -19 3 -59 7 -88 10 -29 4 -61 8 -71 10
-10 2 -42 6 -72 10 -30 3 -65 8 -79 10 -70 12 -238 37 -260 40 -14 2 -41 7
-60 10 -19 4 -46 9 -60 12 -14 2 -83 16 -155 30 -71 14 -141 27 -155 30 -53
10 -299 65 -375 85 -44 11 -89 22 -100 24 -53 10 -465 128 -590 169 -529 175
-978 399 -1364 682 -42 31 -83 62 -91 69 -385 338 -768 550 -1130 624 -142 29
-208 35 -390 35 -195 0 -395 -23 -480 -55 -14 -5 -36 -11 -50 -14 -14 -2 -42
-11 -63 -19 -21 -9 -40 -16 -43 -16 -27 3 -266 -116 -373 -185 -224 -147 -481
-413 -617 -639 -16 -27 -37 -63 -48 -80 -31 -53 -123 -239 -146 -297 -12 -30
-26 -64 -31 -75 -39 -90 -110 -372 -124 -494 -3 -23 -7 -55 -9 -70 -21 -131
-22 -469 -1 -626 2 -16 6 -52 10 -80 3 -27 8 -57 10 -65 2 -8 7 -33 10 -55 8
-57 13 -84 18 -93 3 -4 8 -24 11 -45 18 -111 109 -391 194 -592 87 -208 237
-491 375 -710 59 -93 270 -371 338 -446 13 -14 54 -59 90 -100 37 -41 101
-109 143 -151 76 -76 92 -97 58 -79 -66 35 -281 47 -387 21 -256 -63 -481
-334 -566 -683 l-12 -48 -24 91 c-58 227 -186 431 -351 562 -52 42 -163 88
-252 105 -41 8 -163 9 -195 2 -101 -22 -144 -34 -184 -52 -73 -31 -173 -102
-245 -174 -106 -104 -170 -215 -203 -353 -23 -96 -22 -290 1 -395 20 -88 29
-122 52 -186 65 -181 117 -263 349 -553 28 -35 64 -80 80 -101 17 -21 59 -75
95 -120 36 -45 77 -97 92 -116 14 -19 101 -128 193 -244 91 -115 178 -226 193
-245 15 -19 96 -122 180 -228 151 -191 153 -194 135 -214 -28 -32 -202 -205
-291 -288 -92 -88 -114 -107 -287 -259 -71 -63 -132 -117 -135 -120 -19 -22
-207 -176 -264 -215 -113 -79 -265 -149 -371 -172 -75 -16 -230 -13 -300 5
-445 119 -798 501 -1103 1197 -71 160 -228 614 -247 713 -2 9 -4 16 -5 16 -1
0 -3 7 -5 15 -2 8 -13 49 -25 90 -12 41 -24 85 -26 97 -2 12 -9 34 -14 48 -5
14 -8 25 -5 25 2 0 -2 18 -10 40 -8 22 -12 40 -10 40 2 0 -3 24 -11 53 -15 54
-52 225 -69 317 -2 14 -9 50 -15 80 -6 30 -13 64 -15 75 -11 54 -55 326 -60
370 -4 28 -8 57 -10 65 -3 8 -7 40 -10 70 -5 49 -8 77 -20 160 -2 14 -6 52
-10 85 -3 33 -7 76 -10 95 -2 19 -7 71 -10 115 -4 44 -8 94 -10 110 -2 17 -6
77 -10 135 -3 58 -8 130 -10 160 -28 417 -19 1086 20 1480 3 25 7 70 10 100 9
97 16 154 20 180 2 14 7 50 10 80 3 30 8 62 10 70 2 8 7 40 10 70 3 30 8 62
10 70 4 15 10 53 24 157 17 123 -4 319 -45 424 -49 125 -178 250 -298 289 -78
25 -228 17 -369 -20 -432 -114 -958 -379 -1625 -822 -133 -88 -163 -104 -126
-69 10 10 64 67 119 126 414 449 1120 1142 1735 1705 74 68 137 127 140 130 3
3 48 43 100 90 52 47 100 89 106 95 57 52 199 179 284 255 58 51 121 107 140
124 90 80 347 302 460 396 69 58 127 107 130 110 10 10 124 105 155 130 18 14
84 67 146 119 63 51 132 108 154 126 22 18 121 96 220 174 99 79 187 148 195
154 29 23 157 122 190 147 18 14 86 66 151 115 193 147 249 188 294 220 23 17
111 80 196 141 772 557 1588 1071 2314 1459 136 73 538 275 640 322 50 22 120
55 157 72 37 17 69 31 72 31 3 0 34 13 68 28 35 16 131 55 213 87 83 31 159
61 170 65 96 41 516 167 667 200 60 14 65 25 22 51 -23 14 -32 13 -97 -4 -40
-10 -76 -20 -82 -21 -15 -4 -88 -25 -185 -53 -142 -41 -490 -161 -575 -198
-16 -7 -61 -25 -99 -40 -38 -15 -77 -31 -85 -35 -9 -4 -59 -26 -112 -49 -484
-205 -1200 -591 -1854 -999 -339 -212 -1122 -744 -1390 -945 -24 -17 -54 -40
-66 -49 -303 -215 -951 -719 -1344 -1043 -111 -91 -181 -150 -185 -155 -3 -3
-18 -16 -34 -28 -16 -12 -54 -44 -85 -71 -31 -26 -141 -122 -246 -212 -104
-89 -192 -165 -195 -169 -3 -3 -86 -77 -185 -165 -99 -88 -200 -178 -225 -201
-25 -22 -76 -69 -115 -105 -38 -35 -75 -68 -81 -74 -6 -5 -51 -46 -99 -90 -49
-44 -103 -93 -121 -110 -17 -16 -82 -77 -144 -135 -403 -376 -1034 -996 -1393
-1370 l-159 -165 35 70 c123 249 262 538 372 770 23 50 68 144 100 210 31 66
70 148 85 181 16 34 48 101 71 150 23 49 68 145 99 214 32 69 74 159 93 200
35 75 114 248 160 350 14 30 37 81 51 113 15 32 78 176 142 320 63 144 121
276 129 292 91 203 371 877 492 1185 359 911 569 1533 787 2332 28 103 27 146
-3 184 -28 36 -116 109 -156 131 -107 57 -224 106 -277 117 -129 27 -177 33
-249 34 -46 0 -103 -3 -127 -7z m3360 -9310 c83 -29 145 -68 213 -136 107
-105 170 -216 229 -405 44 -139 94 -348 99 -412 4 -64 13 -69 22 -11 9 64 60
276 86 355 58 180 141 334 233 434 161 177 355 226 595 152 84 -26 167 -82
261 -177 128 -129 182 -261 181 -445 -1 -151 -12 -223 -52 -345 -27 -81 -91
-219 -134 -286 -18 -27 -195 -243 -394 -480 -200 -236 -451 -535 -559 -664
-108 -129 -208 -248 -222 -263 l-25 -29 -110 138 c-401 504 -874 1095 -908
1133 -64 74 -163 228 -216 341 -132 276 -147 575 -39 769 92 166 248 296 408
339 95 26 245 23 332 -8z"/>
</g>
</svg>
